<svg width="168" height="30" viewBox="0 0 168 30" fill="none" xmlns="http://www.w3.org/2000/svg">
<g clip-path="url(#clip0_4997_48862)">
<path d="M12.2151 15.3769C11.7829 11.4721 15.8722 8.34722 21.3421 8.38938C26.8119 8.43153 31.5968 11.6249 32.0236 15.5245C32.4504 19.4292 28.3665 22.5541 22.8966 22.512C17.4267 22.4751 12.6419 19.2764 12.2151 15.3822M33.0459 16.5889C32.5506 11.7514 27.0491 7.78864 20.7466 7.73594C14.4441 7.68325 9.7436 11.5617 10.2389 16.3992C10.7343 21.2367 16.241 25.1995 22.5383 25.2522C28.8355 25.3049 33.5412 21.4264 33.0459 16.5889Z" fill="#FBB584"/>
<path d="M23.5397 25.347C20.4359 28.5931 15.4561 28.8618 12.4208 25.9477C9.38025 23.0389 9.43295 18.0538 12.5368 14.813C15.6406 11.5722 20.6204 11.3034 23.6557 14.2123C26.691 17.1211 26.6436 22.1062 23.5397 25.347ZM12.0467 14.7129C8.44226 18.4754 8.38429 24.272 11.9149 27.6551C15.4509 31.0382 21.2369 30.722 24.8413 26.9542C28.451 23.1865 28.509 17.3899 24.9731 14.012C21.4424 10.6342 15.6511 10.9451 12.0467 14.7129Z" fill="#F89B5C"/>
<path d="M12.3794 2.58221C18.8294 0.163446 25.211 2.61382 26.6285 8.04681C28.0513 13.4798 23.9673 19.8508 17.512 22.2643C11.062 24.6883 4.68048 22.2379 3.26295 16.8049C1.84542 11.3667 5.92938 5.00097 12.3794 2.58221ZM6.38784 4.65844C-0.309863 9.95442 -2.01195 17.6375 2.57789 21.8058C7.16774 25.9794 16.3158 25.0624 23.0082 19.7665C29.7007 14.4705 31.408 6.78737 26.8129 2.61909C22.2231 -1.55445 13.0803 -0.642807 6.38784 4.65844Z" fill="#F37321"/>
<path d="M48.4429 9.00067V21.0049H46.5617V14.6761H39.4477V21.0049H37.5664V9.00067H39.4477V13.0267H46.5617V9.00067H48.4429Z" fill="white"/>
<path d="M52.954 21.0048C52.0792 21.0048 51.3836 20.7571 50.8672 20.267C50.3455 19.777 50.082 19.1446 50.082 18.37V17.7271C50.082 16.9419 50.3455 16.3043 50.8672 15.8142C51.3784 15.3136 52.0739 15.0606 52.954 15.0606H57.86V15.0132C57.86 14.0541 57.333 13.5746 56.2791 13.5746H50.825V11.9779H56.2475C57.3752 11.9779 58.2394 12.2625 58.8349 12.8421C59.4409 13.3954 59.7465 14.2017 59.7465 15.2556V18.4385C59.7465 19.2553 59.4725 19.8982 58.9139 20.3672C58.4133 20.794 57.7072 21.01 56.8008 21.01H52.9592L52.954 21.0048ZM56.3845 16.6626H53.4072C52.4481 16.6626 51.9633 17.0684 51.9633 17.8852V18.1803C51.9633 18.9865 52.4428 19.387 53.4072 19.387H56.3845C57.3647 19.387 57.8547 18.9865 57.8547 18.1803V17.8852C57.8547 17.0684 57.3647 16.6626 56.3845 16.6626Z" fill="white"/>
<path d="M65.2434 11.9779H67.093C68.2629 11.9779 69.1798 12.3152 69.849 12.9949C70.5183 13.6747 70.8503 14.618 70.8503 15.83V20.9995H68.969V15.9196C68.969 15.166 68.8215 14.618 68.5316 14.2755C68.168 13.8275 67.6411 13.601 66.9508 13.601H65.3541C64.6848 13.601 64.1631 13.8275 63.789 14.2755C63.515 14.618 63.3832 15.166 63.3832 15.9196V20.9995H61.502V15.83C61.502 14.618 61.8339 13.6747 62.5032 12.9949C63.1724 12.3152 64.0841 11.9779 65.2434 11.9779Z" fill="white"/>
<path d="M79.5172 19.798C78.8479 20.6043 78.0206 21.0048 77.0247 21.0048H75.8653C74.822 21.0048 73.9894 20.6781 73.3728 20.0194C72.7879 19.4028 72.498 18.5281 72.498 17.4004V11.9779H74.3635V17.4162C74.3635 18.0749 74.5058 18.5544 74.7851 18.86C75.1065 19.2026 75.5334 19.3765 76.055 19.3765H76.8718C77.4041 19.3765 77.8309 19.2026 78.1576 18.86C78.4475 18.5597 78.595 18.0749 78.595 17.4162V11.9779H80.4446V17.4162C80.4446 18.0749 80.5869 18.5544 80.8662 18.86C81.1877 19.2026 81.6145 19.3765 82.1362 19.3765H82.953C83.4852 19.3765 83.9121 19.2026 84.2388 18.86C84.5339 18.5597 84.6762 18.0749 84.6762 17.4162V11.9779H86.5416V17.4004C86.5416 18.5281 86.236 19.4028 85.6352 20.0194C85.0187 20.6781 84.1808 21.0048 83.1269 21.0048H81.9834C81.0138 21.0048 80.1917 20.6043 79.5225 19.798H79.5172Z" fill="white"/>
<path d="M92.0494 13.6063C91.3801 13.6063 90.8584 13.8329 90.4843 14.2808C90.2103 14.6233 90.0785 15.1713 90.0785 15.9249V21.0048H88.1973V8.96899H90.0785V12.526C90.6213 12.1624 91.2431 11.978 91.944 11.978H93.7936C94.9635 11.978 95.8804 12.3152 96.5496 12.995C97.2189 13.6748 97.5509 14.618 97.5509 15.8301V20.9996H95.6696V15.9196C95.6696 15.1661 95.5221 14.618 95.2322 14.2755C94.8686 13.8276 94.3417 13.601 93.6513 13.601H92.0546L92.0494 13.6063Z" fill="white"/>
<path d="M101.972 21.0048C101.092 21.0048 100.401 20.7571 99.8848 20.267C99.3631 19.777 99.0996 19.1446 99.0996 18.37V17.7271C99.0996 16.9419 99.3631 16.3043 99.8848 15.8142C100.396 15.3136 101.092 15.0606 101.972 15.0606H106.878V15.0132C106.878 14.0541 106.351 13.5746 105.297 13.5746H99.8426V11.9779H105.265C106.393 11.9779 107.257 12.2625 107.852 12.8421C108.458 13.3954 108.764 14.2017 108.764 15.2556V18.4385C108.764 19.2553 108.485 19.8982 107.932 20.3672C107.431 20.794 106.725 21.01 105.818 21.01H101.977L101.972 21.0048ZM105.402 16.6626H102.425C101.466 16.6626 100.981 17.0684 100.981 17.8852V18.1803C100.981 18.9865 101.46 19.387 102.425 19.387H105.402C106.382 19.387 106.872 18.9865 106.872 18.1803V17.8852C106.872 17.0684 106.382 16.6626 105.402 16.6626Z" fill="white"/>
<path d="M120.821 21.0523C120.61 21.0523 120.415 20.9943 120.226 20.8784C120.036 20.7625 119.873 20.5728 119.725 20.3146L114.318 9.00067H116.342L120.821 18.3701L125.3 9.00067H127.324L121.917 20.3146C121.78 20.578 121.617 20.7625 121.422 20.8784C121.227 20.9943 121.027 21.0523 120.821 21.0523Z" fill="white"/>
<path d="M130.66 10.16C130.66 10.5078 130.539 10.7818 130.291 10.9926C130.044 11.2034 129.748 11.3088 129.406 11.3088C129.063 11.3088 128.789 11.2034 128.552 10.9926C128.315 10.7818 128.199 10.5078 128.199 10.16C128.199 9.81219 128.315 9.53817 128.552 9.32212C128.789 9.10606 129.074 9.00067 129.406 9.00067C129.738 9.00067 130.044 9.10606 130.291 9.32212C130.539 9.53817 130.66 9.81746 130.66 10.16ZM128.468 21.0049V11.978H130.381V21.0049H128.468Z" fill="white"/>
<path d="M138.305 15.693C139.317 15.693 140.06 15.8511 140.529 16.162C141.125 16.5572 141.42 17.179 141.42 18.0274V18.702C141.42 19.5398 141.125 20.1564 140.529 20.5516C140.06 20.852 139.312 21.0048 138.289 21.0048H132.303V19.3765H138.289C139.117 19.3765 139.528 19.0919 139.528 18.5281V18.1697C139.528 17.5953 139.117 17.3055 138.289 17.3055H135.186C134.184 17.3055 133.447 17.1527 132.978 16.8523C132.393 16.4571 132.098 15.8405 132.098 15.0027V14.3124C132.098 13.4534 132.393 12.8316 132.978 12.4469C133.447 12.136 134.184 11.9779 135.186 11.9779H140.919V13.6062H135.217C134.4 13.6062 133.995 13.8908 133.995 14.4652V14.8393C133.995 15.4032 134.395 15.6877 135.201 15.6877H138.305V15.693Z" fill="white"/>
<path d="M145.33 10.16C145.33 10.5078 145.209 10.7818 144.961 10.9926C144.714 11.2034 144.418 11.3088 144.076 11.3088C143.733 11.3088 143.459 11.2034 143.222 10.9926C142.985 10.7818 142.869 10.5078 142.869 10.16C142.869 9.81219 142.985 9.53817 143.222 9.32212C143.459 9.10606 143.744 9.00067 144.076 9.00067C144.408 9.00067 144.714 9.10606 144.961 9.32212C145.209 9.53817 145.33 9.81746 145.33 10.16ZM143.138 21.0049V11.978H145.051V21.0049H143.138Z" fill="white"/>
<path d="M153.224 21.0048H150.452C149.335 20.9943 148.455 20.6675 147.817 20.0352C147.179 19.4081 146.863 18.5123 146.863 17.3424V15.6667C146.863 14.4863 147.179 13.5852 147.817 12.9581C148.455 12.3205 149.329 11.999 150.452 11.9885H153.224C154.351 11.999 155.237 12.3205 155.869 12.9581C156.507 13.5852 156.823 14.4863 156.823 15.6667V17.3424C156.823 18.5123 156.507 19.4081 155.869 20.0352C155.231 20.6728 154.351 20.9943 153.224 21.0048ZM153.081 19.3765C153.751 19.3765 154.241 19.171 154.552 18.7652C154.815 18.4227 154.942 17.9115 154.942 17.2476V15.7721C154.942 15.0923 154.81 14.5811 154.552 14.2386C154.241 13.8223 153.745 13.6115 153.081 13.6115H150.573C149.914 13.6115 149.43 13.8223 149.113 14.2386C148.86 14.5811 148.739 15.0923 148.739 15.7721V17.2476C148.739 17.9168 148.866 18.4227 149.113 18.7652C149.43 19.171 149.914 19.3765 150.573 19.3765H153.081Z" fill="white"/>
<path d="M162.236 11.9779H164.085C165.255 11.9779 166.172 12.3152 166.841 12.9949C167.51 13.6747 167.842 14.618 167.842 15.83V20.9995H165.961V15.9196C165.961 15.166 165.814 14.618 165.524 14.2755C165.16 13.8275 164.633 13.601 163.943 13.601H162.346C161.677 13.601 161.155 13.8275 160.781 14.2755C160.507 14.618 160.375 15.166 160.375 15.9196V20.9995H158.494V15.83C158.494 14.618 158.826 13.6747 159.495 12.9949C160.165 12.3152 161.076 11.9779 162.236 11.9779Z" fill="white"/>
</g>
<defs>
<clipPath id="clip0_4997_48862">
<rect width="167.848" height="30" fill="white"/>
</clipPath>
</defs>
</svg>
